<?xml version="1.0" encoding="UTF-8" standalone="no"?>
<!-- Created with Inkscape (http://www.inkscape.org/) -->

<svg width="210mm" height="297mm" viewBox="0 0 210 297" version="1.1" id="svg1" inkscape:version="1.3-alpha (2a5ddc9, 2023-03-29)" sodipodi:docname="lattice-greatest-least.svg" xmlns:inkscape="http://www.inkscape.org/namespaces/inkscape" xmlns:sodipodi="http://sodipodi.sourceforge.net/DTD/sodipodi-0.dtd" xmlns="http://www.w3.org/2000/svg" xmlns:svg="http://www.w3.org/2000/svg">
  <sodipodi:namedview id="namedview1" pagecolor="#ffffff" bordercolor="#666666" borderopacity="1.0" inkscape:showpageshadow="2" inkscape:pageopacity="0.0" inkscape:pagecheckerboard="0" inkscape:deskcolor="#d1d1d1" inkscape:document-units="mm" inkscape:zoom="2.3786088" inkscape:cx="379.84388" inkscape:cy="310.4756" inkscape:window-width="1920" inkscape:window-height="1048" inkscape:window-x="1920" inkscape:window-y="0" inkscape:window-maximized="1" inkscape:current-layer="g37" showguides="true" />
  <defs id="defs1" />
  <g inkscape:label="Layer 1" inkscape:groupmode="layer" id="layer1">
    <text xml:space="preserve" style="font-size:10.5833px;line-height:1.25;font-family:Lato;-inkscape-font-specification:Lato;stroke-width:0.264583" x="22.256657" y="40.34269" id="text1"><tspan sodipodi:role="line" id="tspan1" style="stroke-width:0.264583" x="22.256657" y="40.34269" /></text>
    <g inkscape:label="" transform="translate(108.342, 63.8764)" id="g19" inkscape:export-filename="lattice_greatest_least.png" inkscape:export-xdpi="300.06" inkscape:export-ydpi="300.06">
      <g fill="#000000" fill-opacity="1" id="g14" transform="matrix(0.352778 0 0 0.352778 -82.2117 -3.16649)">
        <g id="g13" transform="translate(232.463,18.929001)">
          <path d="M 4.3125,-1.703125 C 4.25,-1.46875 4.25,-1.4375 4.046875,-1.15625 c -0.3125,0.390625 -0.953125,1.015625 -1.625,1.015625 -0.578125,0 -0.921875,-0.53125 -0.921875,-1.375 0,-0.796875 0.453125,-2.40625 0.71875,-3 0.5,-1 1.171875,-1.515625 1.71875,-1.515625 0.953125,0 1.140625,1.171875 1.140625,1.28125 0,0.015625 -0.046875,0.203125 -0.0625,0.234375 z M 5.234375,-5.375 C 5.078125,-5.75 4.6875,-6.328125 3.9375,-6.328125 c -1.609375,0 -3.359375,2.09375 -3.359375,4.21875 0,1.421875 0.828125,2.25 1.796875,2.25 0.796875,0 1.46875,-0.609375 1.875,-1.09375 0.140625,0.859375 0.8125,1.09375 1.25,1.09375 0.421875,0 0.765625,-0.25 1.03125,-0.765625 C 6.75,-1.125 6.953125,-2 6.953125,-2.046875 6.953125,-2.125 6.90625,-2.1875 6.8125,-2.1875 c -0.125,0 -0.140625,0.078125 -0.203125,0.296875 -0.21875,0.84375 -0.484375,1.75 -1.078125,1.75 -0.40625,0 -0.4375,-0.375 -0.4375,-0.65625 0,-0.34375 0.046875,-0.5 0.171875,-1.046875 0.09375,-0.359375 0.171875,-0.6875 0.28125,-1.09375 0.53125,-2.15625 0.65625,-2.671875 0.65625,-2.75 0,-0.203125 -0.15625,-0.359375 -0.359375,-0.359375 -0.46875,0 -0.578125,0.5 -0.609375,0.671875 z m 0,0" id="path12" />
        </g>
      </g>
      <g fill="#000000" fill-opacity="1" id="g16" transform="matrix(0.352778 0 0 0.352778 -82.2117 -3.16649)">
        <g id="g15" transform="translate(243.02499,18.929001)">
          <path d="m 5.109375,-8.28125 c -0.125,-0.234375 -0.203125,-0.296875 -0.328125,-0.296875 -0.1875,0 -0.234375,0.09375 -0.328125,0.296875 l -3.5625,8.015625 c -0.09375,0.1875 -0.109375,0.21875 -0.109375,0.296875 0,0.15625 0.140625,0.28125 0.296875,0.28125 0.09375,0 0.21875,-0.03125 0.328125,-0.296875 l 3.375,-7.609375 3.359375,7.609375 C 8.28125,0.3125 8.421875,0.3125 8.484375,0.3125 c 0.15625,0 0.28125,-0.125 0.28125,-0.28125 0,-0.03125 0,-0.0625 -0.09375,-0.234375 z m 0,0" id="path14" />
        </g>
      </g>
      <g fill="#000000" fill-opacity="1" id="g18" transform="matrix(0.352778 0 0 0.352778 -82.2117 -3.16649)">
        <g id="g17" transform="translate(255.77699,18.929001)">
          <path d="m 3.3125,-9.59375 c 0.015625,-0.0625 0.046875,-0.140625 0.046875,-0.21875 0,-0.140625 -0.140625,-0.140625 -0.171875,-0.140625 -0.015625,0 -0.53125,0.046875 -0.796875,0.0625 -0.234375,0.015625 -0.453125,0.046875 -0.71875,0.0625 -0.34375,0.03125 -0.4375,0.046875 -0.4375,0.296875 0,0.15625 0.140625,0.15625 0.28125,0.15625 C 2.25,-9.375 2.25,-9.25 2.25,-9.109375 c 0,0.09375 -0.109375,0.515625 -0.171875,0.78125 l -0.34375,1.375 C 1.59375,-6.390625 0.78125,-3.125 0.71875,-2.875 c -0.078125,0.359375 -0.078125,0.609375 -0.078125,0.796875 0,1.46875 0.828125,2.21875 1.75,2.21875 1.671875,0 3.390625,-2.140625 3.390625,-4.21875 0,-1.3125 -0.75,-2.25 -1.828125,-2.25 -0.734375,0 -1.421875,0.625 -1.6875,0.90625 z m -0.90625,9.453125 c -0.453125,0 -0.953125,-0.34375 -0.953125,-1.46875 0,-0.46875 0.03125,-0.75 0.296875,-1.75 0.046875,-0.1875 0.265625,-1.09375 0.328125,-1.28125 0.03125,-0.125 0.875,-1.390625 1.859375,-1.390625 0.625,0 0.90625,0.625 0.90625,1.375 0,0.6875 -0.390625,2.296875 -0.75,3.046875 -0.359375,0.78125 -1.03125,1.46875 -1.6875,1.46875 z m 0,0" id="path16" />
        </g>
      </g>
    </g>
    <g inkscape:label="" transform="translate(75.564406,63.8764)" id="g26">
      <g fill="#000000" fill-opacity="1" id="g21" transform="matrix(0.352778,0,0,0.352778,-82.2117,-3.16649)">
        <g id="g20" transform="translate(232.463,18.929001)">
          <path d="M 4.3125,-1.703125 C 4.25,-1.46875 4.25,-1.4375 4.046875,-1.15625 c -0.3125,0.390625 -0.953125,1.015625 -1.625,1.015625 -0.578125,0 -0.921875,-0.53125 -0.921875,-1.375 0,-0.796875 0.453125,-2.40625 0.71875,-3 0.5,-1 1.171875,-1.515625 1.71875,-1.515625 0.953125,0 1.140625,1.171875 1.140625,1.28125 0,0.015625 -0.046875,0.203125 -0.0625,0.234375 z M 5.234375,-5.375 C 5.078125,-5.75 4.6875,-6.328125 3.9375,-6.328125 c -1.609375,0 -3.359375,2.09375 -3.359375,4.21875 0,1.421875 0.828125,2.25 1.796875,2.25 0.796875,0 1.46875,-0.609375 1.875,-1.09375 0.140625,0.859375 0.8125,1.09375 1.25,1.09375 0.421875,0 0.765625,-0.25 1.03125,-0.765625 C 6.75,-1.125 6.953125,-2 6.953125,-2.046875 6.953125,-2.125 6.90625,-2.1875 6.8125,-2.1875 c -0.125,0 -0.140625,0.078125 -0.203125,0.296875 -0.21875,0.84375 -0.484375,1.75 -1.078125,1.75 -0.40625,0 -0.4375,-0.375 -0.4375,-0.65625 0,-0.34375 0.046875,-0.5 0.171875,-1.046875 0.09375,-0.359375 0.171875,-0.6875 0.28125,-1.09375 0.53125,-2.15625 0.65625,-2.671875 0.65625,-2.75 0,-0.203125 -0.15625,-0.359375 -0.359375,-0.359375 -0.46875,0 -0.578125,0.5 -0.609375,0.671875 z m 0,0" id="path19" />
        </g>
      </g>
      <g fill="#000000" fill-opacity="1" id="g23" transform="matrix(0.352778,0,0,0.352778,-82.2117,-3.16649)">
        <g id="g22" transform="translate(243.02499,18.929001)">
          <path d="M 8.65625,-8 C 8.75,-8.1875 8.765625,-8.21875 8.765625,-8.296875 c 0,-0.15625 -0.125,-0.28125 -0.28125,-0.28125 -0.15625,0 -0.234375,0.09375 -0.34375,0.3125 L 4.78125,-0.671875 1.40625,-8.28125 C 1.296875,-8.546875 1.171875,-8.578125 1.078125,-8.578125 c -0.15625,0 -0.296875,0.125 -0.296875,0.28125 0,0.03125 0,0.0625 0.09375,0.234375 L 4.453125,0.015625 C 4.5625,0.265625 4.640625,0.3125 4.78125,0.3125 4.96875,0.3125 5,0.21875 5.09375,0.015625 Z m 0,0" id="path21" />
        </g>
      </g>
      <g fill="#000000" fill-opacity="1" id="g25" transform="matrix(0.352778,0,0,0.352778,-82.2117,-3.16649)">
        <g id="g24" transform="translate(255.77699,18.929001)">
          <path d="m 3.3125,-9.59375 c 0.015625,-0.0625 0.046875,-0.140625 0.046875,-0.21875 0,-0.140625 -0.140625,-0.140625 -0.171875,-0.140625 -0.015625,0 -0.53125,0.046875 -0.796875,0.0625 -0.234375,0.015625 -0.453125,0.046875 -0.71875,0.0625 -0.34375,0.03125 -0.4375,0.046875 -0.4375,0.296875 0,0.15625 0.140625,0.15625 0.28125,0.15625 C 2.25,-9.375 2.25,-9.25 2.25,-9.109375 c 0,0.09375 -0.109375,0.515625 -0.171875,0.78125 l -0.34375,1.375 C 1.59375,-6.390625 0.78125,-3.125 0.71875,-2.875 c -0.078125,0.359375 -0.078125,0.609375 -0.078125,0.796875 0,1.46875 0.828125,2.21875 1.75,2.21875 1.671875,0 3.390625,-2.140625 3.390625,-4.21875 0,-1.3125 -0.75,-2.25 -1.828125,-2.25 -0.734375,0 -1.421875,0.625 -1.6875,0.90625 z m -0.90625,9.453125 c -0.453125,0 -0.953125,-0.34375 -0.953125,-1.46875 0,-0.46875 0.03125,-0.75 0.296875,-1.75 0.046875,-0.1875 0.265625,-1.09375 0.328125,-1.28125 0.03125,-0.125 0.875,-1.390625 1.859375,-1.390625 0.625,0 0.90625,0.625 0.90625,1.375 0,0.6875 -0.390625,2.296875 -0.75,3.046875 -0.359375,0.78125 -1.03125,1.46875 -1.6875,1.46875 z m 0,0" id="path23" />
        </g>
      </g>
    </g>
    <g id="g29" transform="translate(-0.0912742)">
      <g id="g34" transform="translate(2.6090737)">
        <text xml:space="preserve" style="font-style:normal;font-variant:normal;font-weight:normal;font-stretch:normal;font-size:4.93889px;line-height:1.25;font-family:'Latin Modern Math';-inkscape-font-specification:'Latin Modern Math, Normal';font-variant-ligatures:normal;font-variant-caps:normal;font-variant-numeric:normal;font-variant-east-asian:normal;stroke-width:0.264583" x="69.281601" y="76.855583" id="text26"><tspan sodipodi:role="line" id="tspan26" style="font-style:normal;font-variant:normal;font-weight:normal;font-stretch:normal;font-size:4.93889px;font-family:'Latin Modern Math';-inkscape-font-specification:'Latin Modern Math, Normal';font-variant-ligatures:normal;font-variant-caps:normal;font-variant-numeric:normal;font-variant-east-asian:normal;stroke-width:0.264583" x="69.281601" y="76.855583">a</tspan></text>
        <text xml:space="preserve" style="font-style:normal;font-variant:normal;font-weight:normal;font-stretch:normal;font-size:4.93889px;line-height:1.25;font-family:'Latin Modern Math';-inkscape-font-specification:'Latin Modern Math, Normal';font-variant-ligatures:normal;font-variant-caps:normal;font-variant-numeric:normal;font-variant-east-asian:normal;stroke-width:0.264583" x="84.59639" y="76.866165" id="text27"><tspan sodipodi:role="line" id="tspan27" style="font-style:normal;font-variant:normal;font-weight:normal;font-stretch:normal;font-size:4.93889px;font-family:'Latin Modern Math';-inkscape-font-specification:'Latin Modern Math, Normal';font-variant-ligatures:normal;font-variant-caps:normal;font-variant-numeric:normal;font-variant-east-asian:normal;stroke-width:0.264583" x="84.59639" y="76.866165">b</tspan></text>
        <path style="fill:none;stroke:#000000;stroke-width:0.165;stroke-linecap:butt;stroke-linejoin:miter;stroke-dasharray:none;stroke-opacity:1" d="M 70.553365,78.560569 V 89.962973" id="path27" />
        <path style="fill:none;stroke:#000000;stroke-width:0.165;stroke-linecap:butt;stroke-linejoin:miter;stroke-dasharray:none;stroke-opacity:1" d="M 85.952116,78.560569 V 89.962973" id="path28" />
        <text xml:space="preserve" style="font-style:normal;font-variant:normal;font-weight:normal;font-stretch:normal;font-size:3.52778px;line-height:1.25;font-family:'Latin Modern Math';-inkscape-font-specification:'Latin Modern Math, Normal';font-variant-ligatures:normal;font-variant-caps:normal;font-variant-numeric:normal;font-variant-east-asian:normal;stroke-width:0.264583" x="68.101562" y="94.259468" id="text28"><tspan sodipodi:role="line" id="tspan28" style="font-style:normal;font-variant:normal;font-weight:normal;font-stretch:normal;font-size:3.52778px;font-family:'Latin Modern Math';-inkscape-font-specification:'Latin Modern Math, Normal';font-variant-ligatures:normal;font-variant-caps:normal;font-variant-numeric:normal;font-variant-east-asian:normal;stroke-width:0.264583" x="68.101562" y="94.259468">[...]</tspan></text>
        <text xml:space="preserve" style="font-style:normal;font-variant:normal;font-weight:normal;font-stretch:normal;font-size:3.52778px;line-height:1.25;font-family:'Latin Modern Math';-inkscape-font-specification:'Latin Modern Math, Normal';font-variant-ligatures:normal;font-variant-caps:normal;font-variant-numeric:normal;font-variant-east-asian:normal;stroke-width:0.264583" x="83.500305" y="94.259468" id="text29"><tspan sodipodi:role="line" id="tspan29" style="font-style:normal;font-variant:normal;font-weight:normal;font-stretch:normal;font-size:3.52778px;font-family:'Latin Modern Math';-inkscape-font-specification:'Latin Modern Math, Normal';font-variant-ligatures:normal;font-variant-caps:normal;font-variant-numeric:normal;font-variant-east-asian:normal;stroke-width:0.264583" x="83.500305" y="94.259468">[...]</tspan></text>
      </g>
    </g>
    <g id="g38" transform="translate(32.695987)">
      <g id="g37" transform="translate(3.1995453)">
        <text xml:space="preserve" style="font-style:normal;font-variant:normal;font-weight:normal;font-stretch:normal;font-size:4.93889px;line-height:1.25;font-family:'Latin Modern Math';-inkscape-font-specification:'Latin Modern Math, Normal';font-variant-ligatures:normal;font-variant-caps:normal;font-variant-numeric:normal;font-variant-east-asian:normal;stroke-width:0.264583" x="69.281601" y="94.456673" id="text34"><tspan sodipodi:role="line" id="tspan34" style="font-style:normal;font-variant:normal;font-weight:normal;font-stretch:normal;font-size:4.93889px;font-family:'Latin Modern Math';-inkscape-font-specification:'Latin Modern Math, Normal';font-variant-ligatures:normal;font-variant-caps:normal;font-variant-numeric:normal;font-variant-east-asian:normal;stroke-width:0.264583" x="69.281601" y="94.456673">a</tspan></text>
        <text xml:space="preserve" style="font-style:normal;font-variant:normal;font-weight:normal;font-stretch:normal;font-size:4.93889px;line-height:1.25;font-family:'Latin Modern Math';-inkscape-font-specification:'Latin Modern Math, Normal';font-variant-ligatures:normal;font-variant-caps:normal;font-variant-numeric:normal;font-variant-east-asian:normal;stroke-width:0.264583" x="84.59639" y="94.456673" id="text35"><tspan sodipodi:role="line" id="tspan35" style="font-style:normal;font-variant:normal;font-weight:normal;font-stretch:normal;font-size:4.93889px;font-family:'Latin Modern Math';-inkscape-font-specification:'Latin Modern Math, Normal';font-variant-ligatures:normal;font-variant-caps:normal;font-variant-numeric:normal;font-variant-east-asian:normal;stroke-width:0.264583" x="84.59639" y="94.456673">b</tspan></text>
        <path style="fill:none;stroke:#000000;stroke-width:0.165;stroke-linecap:butt;stroke-linejoin:miter;stroke-dasharray:none;stroke-opacity:1" d="M 70.553365,78.560569 V 89.962973" id="path35" />
        <path style="fill:none;stroke:#000000;stroke-width:0.165;stroke-linecap:butt;stroke-linejoin:miter;stroke-dasharray:none;stroke-opacity:1" d="M 85.952116,78.560569 V 89.962973" id="path36" />
        <text xml:space="preserve" style="font-style:normal;font-variant:normal;font-weight:normal;font-stretch:normal;font-size:3.52778px;line-height:1.25;font-family:'Latin Modern Math';-inkscape-font-specification:'Latin Modern Math, Normal';font-variant-ligatures:normal;font-variant-caps:normal;font-variant-numeric:normal;font-variant-east-asian:normal;stroke-width:0.264583" x="68.101562" y="76.061478" id="text36"><tspan sodipodi:role="line" id="tspan36" style="font-style:normal;font-variant:normal;font-weight:normal;font-stretch:normal;font-size:3.52778px;font-family:'Latin Modern Math';-inkscape-font-specification:'Latin Modern Math, Normal';font-variant-ligatures:normal;font-variant-caps:normal;font-variant-numeric:normal;font-variant-east-asian:normal;stroke-width:0.264583" x="68.101562" y="76.061478">[...]</tspan></text>
        <text xml:space="preserve" style="font-style:normal;font-variant:normal;font-weight:normal;font-stretch:normal;font-size:3.52778px;line-height:1.25;font-family:'Latin Modern Math';-inkscape-font-specification:'Latin Modern Math, Normal';font-variant-ligatures:normal;font-variant-caps:normal;font-variant-numeric:normal;font-variant-east-asian:normal;stroke-width:0.264583" x="83.500305" y="76.061478" id="text37"><tspan sodipodi:role="line" id="tspan37" style="font-style:normal;font-variant:normal;font-weight:normal;font-stretch:normal;font-size:3.52778px;font-family:'Latin Modern Math';-inkscape-font-specification:'Latin Modern Math, Normal';font-variant-ligatures:normal;font-variant-caps:normal;font-variant-numeric:normal;font-variant-east-asian:normal;stroke-width:0.264583" x="83.500305" y="76.061478">[...]</tspan></text>
        <path id="path39" style="fill:#ff0000;stroke:#ff0000;stroke-width:0.264583px;stroke-linecap:butt;stroke-linejoin:miter;stroke-opacity:1" d="m 52.561272,64.699133 2.461093,2.461094 m -2.461093,0 2.461093,-2.461094" />
        <path id="path40" style="fill:#ff0000;stroke:#ff0000;stroke-width:0.264583px;stroke-linecap:butt;stroke-linejoin:miter;stroke-opacity:1" d="m 85.540658,64.699133 2.461093,2.461094 m -2.461093,0 2.461093,-2.461094" />
      </g>
    </g>
  </g>
</svg>
