<?xml version="1.0" encoding="UTF-8" standalone="no"?>
<!-- Created with Inkscape (http://www.inkscape.org/) -->

<svg
   width="127.99999mm"
   height="128mm"
   viewBox="0 0 127.99999 128"
   version="1.1"
   id="svg854"
   inkscape:version="1.1.1 (1:1.1+202109281949+c3084ef5ed)"
   sodipodi:docname="mono_icon.svg"
   xmlns:inkscape="http://www.inkscape.org/namespaces/inkscape"
   xmlns:sodipodi="http://sodipodi.sourceforge.net/DTD/sodipodi-0.dtd"
   xmlns="http://www.w3.org/2000/svg"
   xmlns:svg="http://www.w3.org/2000/svg">
  <sodipodi:namedview
     id="namedview856"
     pagecolor="#ffffff"
     bordercolor="#666666"
     borderopacity="1.0"
     inkscape:pageshadow="2"
     inkscape:pageopacity="0.0"
     inkscape:pagecheckerboard="0"
     inkscape:document-units="mm"
     showgrid="false"
     inkscape:zoom="0.81386721"
     inkscape:cx="335.43556"
     inkscape:cy="382.74057"
     inkscape:window-width="1920"
     inkscape:window-height="1051"
     inkscape:window-x="1920"
     inkscape:window-y="0"
     inkscape:window-maximized="1"
     inkscape:current-layer="layer1" />
  <defs
     id="defs851" />
  <g
     inkscape:label="Ebene 1"
     inkscape:groupmode="layer"
     id="layer1">
    <rect
       inkscape:export-ydpi="300.05865"
       inkscape:export-xdpi="300.05865"
       y="1.223902"
       x="1.223902"
       height="125.5522"
       width="125.55219"
       id="rect980"
       style="fill:#ffffff;fill-opacity:1;stroke:#4d4d4d;stroke-width:2.4478;stroke-linecap:square;stroke-miterlimit:4;stroke-dasharray:none;stroke-opacity:1"
       inkscape:export-filename="/home/julian/Bilder/XYQuadrat Icons/mono_with_santa_hat.png" />
    <g
       aria-label="xy"
       transform="matrix(9.9716502,0,0,9.9716503,-407.20667,-562.81978)"
       id="flowRoot988"
       style="font-size:10.5833px;line-height:0%;font-family:'Latin Modern Math';-inkscape-font-specification:'Latin Modern Math, Normal';letter-spacing:0px;word-spacing:0px;fill:#4d4d4d;stroke-width:0.264583px">
      <path
         d="m 47.169967,64.922083 v -0.328082 c -0.571498,0 -0.761998,-0.02117 -1.005413,-0.328082 l -1.418163,-1.830911 c 0.317499,-0.402165 0.719665,-0.920747 0.973664,-1.195913 0.328082,-0.380999 0.761998,-0.539748 1.259413,-0.550331 v -0.328083 c -0.275166,0.02117 -0.592665,0.03175 -0.867831,0.03175 -0.317499,0 -0.878414,-0.02117 -1.015997,-0.03175 v 0.328083 c 0.22225,0.02117 0.306916,0.158749 0.306916,0.328082 0,0.169333 -0.105833,0.306916 -0.15875,0.370415 l -0.656164,0.825498 -0.825497,-1.068914 c -0.09525,-0.105833 -0.09525,-0.126999 -0.09525,-0.190499 0,-0.158749 0.158749,-0.253999 0.370415,-0.264582 v -0.328083 l -1.142996,0.03175 c -0.222249,0 -0.719664,-0.01058 -1.005414,-0.03175 v 0.328083 c 0.740831,0 0.751415,0.01058 1.24883,0.645581 l 1.047746,1.365246 c -0.497415,0.634997 -0.497415,0.656164 -0.99483,1.259412 -0.507998,0.613832 -1.132413,0.634998 -1.354662,0.634998 v 0.328082 c 0.275166,-0.02117 0.603248,-0.03175 0.878414,-0.03175 l 1.005413,0.03175 v -0.328082 c -0.232832,-0.03175 -0.306915,-0.169333 -0.306915,-0.328082 0,-0.232833 0.306915,-0.582082 0.952497,-1.344079 l 0.80433,1.05833 c 0.08467,0.116416 0.22225,0.285749 0.22225,0.349249 0,0.09525 -0.09525,0.253999 -0.380999,0.264582 v 0.328082 l 1.142996,-0.03175 c 0.285749,0 0.698498,0.01058 1.015997,0.03175 z"
         id="path826" />
      <path
         d="m 52.673281,60.688764 v -0.328083 c -0.243416,0.02117 -0.550331,0.03175 -0.793747,0.03175 l -0.920747,-0.03175 v 0.328083 c 0.328082,0.01058 0.497415,0.190499 0.497415,0.455081 0,0.105833 -0.01058,0.127 -0.0635,0.254 l -1.068913,2.603491 -1.174746,-2.846907 c -0.04233,-0.105833 -0.0635,-0.148166 -0.0635,-0.1905 0,-0.275165 0.391582,-0.275165 0.592665,-0.275165 v -0.328083 l -1.15358,0.03175 c -0.285749,0 -0.709081,-0.01058 -1.02658,-0.03175 v 0.328083 c 0.507998,0 0.709081,0 0.857247,0.370415 l 1.587495,3.862904 -0.264582,0.624415 c -0.232833,0.582082 -0.529165,1.312329 -1.206497,1.312329 -0.05292,0 -0.296332,0 -0.497415,-0.190499 0.328083,-0.04233 0.412749,-0.275166 0.412749,-0.444499 0,-0.275165 -0.201083,-0.444498 -0.444499,-0.444498 -0.211666,0 -0.444498,0.137583 -0.444498,0.455082 0,0.476248 0.444498,0.857247 0.973663,0.857247 0.666748,0 1.100664,-0.603248 1.354663,-1.206496 l 1.86266,-4.519069 c 0.275166,-0.666748 0.814915,-0.677331 0.984247,-0.677331 z"
         id="path828" />
    </g>
  </g>
</svg>
