<svg width="483.779" height="128mm" viewBox="0 0 128 128" xmlns="http://www.w3.org/2000/svg"><path style="fill:#fff;fill-opacity:1;stroke:#4d4d4d;stroke-width:2.4478;stroke-linecap:square;stroke-miterlimit:4;stroke-dasharray:none;stroke-opacity:1" d="M1.224 1.224h125.552v125.552H1.224z"/><g aria-label="xy" style="font-size:10.5833px;line-height:0%;font-family:'Latin Modern Math';-inkscape-font-specification:'Latin Modern Math, Normal';letter-spacing:0;word-spacing:0;fill:#4d4d4d;stroke-width:.264583px"><path d="M63.156 84.56V81.29c-5.699 0-7.599-.211-10.026-3.272L38.99 59.76c3.166-4.01 7.176-9.181 9.709-11.925 3.271-3.8 7.598-5.382 12.558-5.488v-3.271c-2.744.21-5.91.316-8.654.316-3.166 0-8.759-.21-10.13-.316v3.271c2.215.211 3.06 1.583 3.06 3.272 0 1.688-1.056 3.06-1.583 3.694l-6.543 8.231-8.232-10.659c-.95-1.055-.95-1.266-.95-1.9 0-1.582 1.583-2.532 3.694-2.638v-3.271l-11.398.316c-2.216 0-7.176-.105-10.025-.316v3.271c7.387 0 7.493.106 12.453 6.438l10.447 13.614c-4.96 6.332-4.96 6.543-9.92 12.558-5.065 6.12-11.292 6.332-13.508 6.332v3.272c2.744-.212 6.016-.317 8.76-.317l10.025.317v-3.272c-2.322-.317-3.06-1.689-3.06-3.272 0-2.321 3.06-5.804 9.498-13.402l8.02 10.553c.844 1.161 2.216 2.85 2.216 3.483 0 .95-.95 2.532-3.799 2.638v3.272l11.398-.317c2.849 0 6.965.105 10.13.317zM118.033 42.347v-3.271c-2.427.21-5.488.316-7.915.316l-9.181-.316v3.271c3.271.106 4.96 1.9 4.96 4.538 0 1.056-.106 1.267-.634 2.533L94.605 75.38 82.89 46.991c-.422-1.056-.633-1.478-.633-1.9 0-2.744 3.905-2.744 5.91-2.744v-3.271l-11.503.316c-2.85 0-7.07-.105-10.237-.316v3.271c5.066 0 7.071 0 8.548 3.694l15.83 38.52-2.638 6.226c-2.322 5.804-5.277 13.086-12.03 13.086-.528 0-2.956 0-4.96-1.9 3.27-.422 4.115-2.743 4.115-4.432 0-2.744-2.005-4.432-4.432-4.432-2.111 0-4.433 1.372-4.433 4.538 0 4.749 4.433 8.548 9.71 8.548 6.648 0 10.975-6.016 13.508-12.031l18.573-45.063c2.744-6.648 8.126-6.754 9.815-6.754z"/></g></svg>